<svg width="24" height="24" viewBox="0 0 24 24" fill="none" xmlns="http://www.w3.org/2000/svg">
  <path d="M12 2C6.48 2 2 6.58 2 12.22C2 16.74 4.87 20.57 8.84 21.92C9.34 22.02 9.52 21.7 9.52 21.42C9.52 21.17 9.51 20.34 9.5 19.46C6.73 20.08 6.14 18.24 6.14 18.24C5.68 17.03 5.03 16.7 5.03 16.7C4.12 16.06 5.1 16.08 5.1 16.08C6.1 16.16 6.64 17.14 6.64 17.14C7.53 18.72 8.97 18.26 9.54 17.98C9.64 17.31 9.89 16.86 10.16 16.6C7.95 16.34 5.62 15.45 5.62 11.45C5.62 10.31 6.01 9.38 6.65 8.64C6.55 8.38 6.2 7.34 6.75 5.94C6.75 5.94 7.59 5.66 9.5 7.01C10.29 6.78 11.14 6.67 12 6.67C12.86 6.67 13.71 6.78 14.5 7.01C16.41 5.66 17.25 5.94 17.25 5.94C17.8 7.34 17.45 8.38 17.35 8.64C17.99 9.38 18.38 10.31 18.38 11.45C18.38 15.46 16.05 16.34 13.83 16.6C14.18 16.93 14.5 17.58 14.5 18.58C14.5 20.01 14.49 21.06 14.49 21.42C14.49 21.7 14.67 22.02 15.17 21.92C19.13 20.57 22 16.74 22 12.22C22 6.58 17.52 2 12 2Z" fill="currentColor"/>
</svg>
